<?xml version="1.0" standalone="no"?><!DOCTYPE svg PUBLIC "-//W3C//DTD SVG 1.1//EN" "http://www.w3.org/Graphics/SVG/1.1/DTD/svg11.dtd"><svg t="1690438653928" class="icon" viewBox="0 0 1024 1024" version="1.1" xmlns="http://www.w3.org/2000/svg" p-id="3972" xmlns:xlink="http://www.w3.org/1999/xlink" width="128" height="128"><path d="M784.19968 160.44032h-512a102.4 102.4 0 0 0-102.4 102.4v512a102.4 102.4 0 0 0 102.4 102.4h512a102.4 102.4 0 0 0 102.4-102.4v-512a102.4 102.4 0 0 0-102.4-102.4z m-465.92 128h205.59872a30.72 30.72 0 1 1 0 61.44h-205.59872a30.72 30.72 0 1 1 0-61.44z m0 133.12h204.8a30.72 30.72 0 1 1 0 61.44h-204.8a30.72 30.72 0 1 1 0-61.44z m419.84 327.68h-419.84a30.72 30.72 0 1 1 0-61.44h419.84a30.72 30.72 0 1 1 0 61.44z m0-133.12h-419.84a30.72 30.72 0 1 1 0-61.44h419.84a30.72 30.72 0 1 1 0 61.44z" p-id="3973" fill="#ffffff"></path></svg>